<svg width="1480" height="725" viewBox="0 0 1480 725" xmlns="http://www.w3.org/2000/svg" font-family="-apple-system, 'Segoe UI', Inter, Roboto, sans-serif">
  <defs>
    <marker id="arrow" viewBox="0 0 10 10" refX="9" refY="5" markerWidth="7.5" markerHeight="7.5" orient="auto-start-reverse">
      <path d="M0,0 L10,5 L0,10 Z" fill="#94a3b8"/>
    </marker>
    <filter id="cardShadow" x="-20%" y="-20%" width="140%" height="160%">
      <feDropShadow dx="0" dy="3" stdDeviation="5" flood-color="#1e293b" flood-opacity="0.08"/>
    </filter>
  </defs>

  <rect width="1480" height="725" fill="#ffffff"/>

  <!-- Header -->
  <g>
    <path d="M60 36 C52 26, 38 22, 36 30 C34 38, 44 42, 60 36Z" fill="#7c3aed" opacity="0.75"/>
    <path d="M60 36 C68 26, 82 22, 84 30 C86 38, 76 42, 60 36Z" fill="#7c3aed" opacity="0.75"/>
    <path d="M60 36 C52 42, 44 48, 46 54 C48 60, 56 56, 60 36Z" fill="#7c3aed" opacity="0.45"/>
    <path d="M60 36 C68 42, 76 48, 74 54 C72 60, 64 56, 60 36Z" fill="#7c3aed" opacity="0.45"/>
    <line x1="60" y1="20" x2="60" y2="52" stroke="#a78bfa" stroke-width="1.5" stroke-linecap="round"/>

    <text x="100" y="46" font-size="27" font-weight="800" letter-spacing="-0.01em" fill="#1e1b2e">butterfly-effect</text>
    <text x="100" y="67" font-size="12.5" fill="#64748b">Type an event. Get the causal chain — 8 stages</text>

    <rect x="1300" y="22" width="120" height="27" rx="13.5" fill="#f5f3ff" stroke="#ddd6fe"/>
    <text x="1360" y="40" font-size="10" font-weight="700" fill="#7c3aed" text-anchor="middle" letter-spacing="0.06em">ANALYSIS PIPELINE</text>
  </g>

  <!-- ===== Connecting arrows ===== -->
  <!-- Row 1, left to right -->
  <line x1="330" y1="210" x2="424" y2="210" stroke="#94a3b8" stroke-width="2" marker-end="url(#arrow)"/>
  <line x1="690" y1="210" x2="784" y2="210" stroke="#94a3b8" stroke-width="2" marker-end="url(#arrow)"/>
  <line x1="1050" y1="210" x2="1144" y2="210" stroke="#94a3b8" stroke-width="2" marker-end="url(#arrow)"/>
  <!-- Vertical drop, col 4 -->
  <line x1="1280" y1="280" x2="1280" y2="374" stroke="#94a3b8" stroke-width="2" marker-end="url(#arrow)"/>
  <!-- Row 2, right to left -->
  <line x1="1150" y1="450" x2="1056" y2="450" stroke="#94a3b8" stroke-width="2" marker-end="url(#arrow)"/>
  <line x1="790" y1="450" x2="696" y2="450" stroke="#94a3b8" stroke-width="2" marker-end="url(#arrow)"/>
  <line x1="430" y1="450" x2="336" y2="450" stroke="#94a3b8" stroke-width="2" marker-end="url(#arrow)"/>

  <!-- ============ NODE 1 — Your Question ============ -->
  <g filter="url(#cardShadow)">
    <rect x="70" y="140" width="260" height="140" rx="14" fill="#ffffff" stroke="#e2e8f0" stroke-width="1.5"/>
    <rect x="70" y="140" width="260" height="5" rx="2.5" fill="#7c3aed"/>
  </g>
  <circle cx="106" cy="176" r="14" fill="#7c3aed"/>
  <text x="234" y="172" font-size="11.5" font-weight="700" fill="#ffffff" text-anchor="middle">1</text>
  <circle cx="234" cy="166" r="14" fill="#7c3aed"/>
  <path d="M106 167 L108.2 173.8 L115 176 L108.2 178.2 L106 185 L103.8 178.2 L97 176 L103.8 173.8 Z" fill="#ffffff"/>
  <text x="94" y="218" font-size="16" font-weight="700" fill="#1e293b">Your Question</text>
  <text x="94" y="240" font-size="12" fill="#64748b">any event,</text>
  <text x="94" y="257" font-size="12" fill="#64748b">any domain</text>

  <!-- ============ NODE 2 — LLM Parsing ============ -->
  <g filter="url(#cardShadow)">
    <rect x="430" y="140" width="260" height="140" rx="14" fill="#ffffff" stroke="#e2e8f0" stroke-width="1.5"/>
    <rect x="430" y="140" width="260" height="5" rx="2.5" fill="#7c3aed"/>
  </g>
  <circle cx="594" cy="166" r="14" fill="#7c3aed"/>
  <text x="594" y="172" font-size="11.5" font-weight="700" fill="#ffffff" text-anchor="middle">2</text>
  <circle cx="466" cy="176" r="14" fill="#f5f3ff" stroke="#ddd6fe"/>
  <rect x="458" y="168" width="16" height="16" rx="3" fill="none" stroke="#7c3aed" stroke-width="1.7"/>
  <rect x="463" y="173" width="6" height="6" fill="#7c3aed"/>
  <text x="454" y="218" font-size="16" font-weight="700" fill="#1e293b">LLM Parsing</text>
  <text x="454" y="240" font-size="12" fill="#64748b">domains, actors,</text>
  <text x="454" y="257" font-size="12" fill="#64748b">severity detected</text>

  <!-- ============ NODE 3 — Evidence Fetch ============ -->
  <g filter="url(#cardShadow)">
    <rect x="790" y="140" width="260" height="140" rx="14" fill="#ffffff" stroke="#e2e8f0" stroke-width="1.5"/>
    <rect x="790" y="140" width="260" height="5" rx="2.5" fill="#7c3aed"/>
  </g>
  <circle cx="954" cy="166" r="14" fill="#7c3aed"/>
  <text x="954" y="172" font-size="11.5" font-weight="700" fill="#ffffff" text-anchor="middle">3</text>
  <circle cx="826" cy="176" r="14" fill="#f5f3ff" stroke="#ddd6fe"/>
  <circle cx="823" cy="173" r="6" fill="none" stroke="#7c3aed" stroke-width="1.7"/>
  <line x1="827.5" y1="177.5" x2="832" y2="182" stroke="#7c3aed" stroke-width="2" stroke-linecap="round"/>
  <text x="814" y="218" font-size="16" font-weight="700" fill="#1e293b">Evidence Fetch</text>
  <text x="814" y="240" font-size="12" fill="#64748b">8 sources, parallel,</text>
  <text x="814" y="257" font-size="12" fill="#64748b">5s timeout each</text>

  <!-- ============ NODE 4 — Causal Graph ============ -->
  <g filter="url(#cardShadow)">
    <rect x="1150" y="140" width="260" height="140" rx="14" fill="#ffffff" stroke="#e2e8f0" stroke-width="1.5"/>
    <rect x="1150" y="140" width="260" height="5" rx="2.5" fill="#7c3aed"/>
  </g>
  <circle cx="1314" cy="166" r="14" fill="#7c3aed"/>
  <text x="1314" y="172" font-size="11.5" font-weight="700" fill="#ffffff" text-anchor="middle">4</text>
  <circle cx="1186" cy="176" r="14" fill="#f5f3ff" stroke="#ddd6fe"/>
  <circle cx="1179" cy="170" r="2.6" fill="#7c3aed"/>
  <circle cx="1193" cy="170" r="2.6" fill="#7c3aed"/>
  <circle cx="1186" cy="183" r="2.6" fill="#7c3aed"/>
  <line x1="1179" y1="170" x2="1186" y2="183" stroke="#7c3aed" stroke-width="1.4"/>
  <line x1="1193" y1="170" x2="1186" y2="183" stroke="#7c3aed" stroke-width="1.4"/>
  <text x="1174" y="218" font-size="16" font-weight="700" fill="#1e293b">Causal Graph</text>
  <text x="1174" y="240" font-size="12" fill="#64748b">domain template +</text>
  <text x="1174" y="257" font-size="12" fill="#64748b">NLP-extracted nodes</text>

  <!-- ============ NODE 5 — Confidence Updates ============ -->
  <g filter="url(#cardShadow)">
    <rect x="1150" y="380" width="260" height="140" rx="14" fill="#ffffff" stroke="#e2e8f0" stroke-width="1.5"/>
    <rect x="1150" y="380" width="260" height="5" rx="2.5" fill="#7c3aed"/>
  </g>
  <circle cx="1314" cy="406" r="14" fill="#7c3aed"/>
  <text x="1314" y="412" font-size="11.5" font-weight="700" fill="#ffffff" text-anchor="middle">5</text>
  <circle cx="1186" cy="416" r="14" fill="#f5f3ff" stroke="#ddd6fe"/>
  <path d="M1177 421 A9 9 0 0 1 1195 421" fill="none" stroke="#7c3aed" stroke-width="1.7"/>
  <line x1="1186" y1="421" x2="1190" y2="412" stroke="#7c3aed" stroke-width="2" stroke-linecap="round"/>
  <circle cx="1186" cy="421" r="1.8" fill="#7c3aed"/>
  <text x="1174" y="458" font-size="16" font-weight="700" fill="#1e293b">Confidence Updates</text>
  <text x="1174" y="480" font-size="12" fill="#64748b">evidence corroborates</text>
  <text x="1174" y="497" font-size="12" fill="#64748b">or contradicts edges</text>

  <!-- ============ NODE 6 — Parallel Simulation ============ -->
  <g filter="url(#cardShadow)">
    <rect x="790" y="380" width="260" height="140" rx="14" fill="#ffffff" stroke="#e2e8f0" stroke-width="1.5"/>
    <rect x="790" y="380" width="260" height="5" rx="2.5" fill="#7c3aed"/>
  </g>
  <circle cx="954" cy="406" r="14" fill="#7c3aed"/>
  <text x="954" y="412" font-size="11.5" font-weight="700" fill="#ffffff" text-anchor="middle">6</text>
  <circle cx="826" cy="416" r="14" fill="#f5f3ff" stroke="#ddd6fe"/>
  <line x1="817" y1="412" x2="835" y2="412" stroke="#7c3aed" stroke-width="1.8" stroke-linecap="round"/>
  <line x1="817" y1="420" x2="835" y2="420" stroke="#7c3aed" stroke-width="1.8" stroke-linecap="round" stroke-dasharray="2.5,2.5"/>
  <circle cx="835" cy="412" r="2" fill="#7c3aed"/>
  <text x="814" y="458" font-size="16" font-weight="700" fill="#1e293b">Parallel Simulation</text>
  <text x="814" y="480" font-size="12" fill="#64748b">Timeline A vs B,</text>
  <text x="814" y="497" font-size="12" fill="#64748b">Mesa agent-based model</text>

  <!-- ============ NODE 7 — Chain Extraction ============ -->
  <g filter="url(#cardShadow)">
    <rect x="430" y="380" width="260" height="140" rx="14" fill="#ffffff" stroke="#e2e8f0" stroke-width="1.5"/>
    <rect x="430" y="380" width="260" height="5" rx="2.5" fill="#7c3aed"/>
  </g>
  <circle cx="594" cy="406" r="14" fill="#7c3aed"/>
  <text x="594" y="412" font-size="11.5" font-weight="700" fill="#ffffff" text-anchor="middle">7</text>
  <circle cx="466" cy="416" r="14" fill="#f5f3ff" stroke="#ddd6fe"/>
  <circle cx="462" cy="416" r="6" fill="none" stroke="#7c3aed" stroke-width="1.7"/>
  <circle cx="471" cy="416" r="6" fill="none" stroke="#7c3aed" stroke-width="1.7"/>
  <text x="454" y="458" font-size="16" font-weight="700" fill="#1e293b">Chain Extraction</text>
  <text x="454" y="480" font-size="12" fill="#64748b">ranked hops +</text>
  <text x="454" y="497" font-size="12" fill="#64748b">confidence breakdown</text>

  <!-- ============ NODE 8 — Causal Chain (final) ============ -->
  <g filter="url(#cardShadow)">
    <rect x="70" y="380" width="260" height="140" rx="14" fill="#ffffff" stroke="#a7f3d0" stroke-width="1.5"/>
    <rect x="70" y="380" width="260" height="5" rx="2.5" fill="#10b981"/>
  </g>
  <circle cx="234" cy="406" r="14" fill="#10b981"/>
  <text x="234" y="412" font-size="11.5" font-weight="700" fill="#ffffff" text-anchor="middle">8</text>
  <circle cx="106" cy="416" r="14" fill="#ecfdf5" stroke="#a7f3d0"/>
  <path d="M99 416 L104 421 L114 409" stroke="#10b981" stroke-width="2.4" fill="none" stroke-linecap="round" stroke-linejoin="round"/>
  <text x="94" y="458" font-size="16" font-weight="700" fill="#1e293b">Causal Chain</text>
  <text x="94" y="480" font-size="12" fill="#64748b">explainable output +</text>
  <text x="94" y="497" font-size="12" fill="#64748b">intervals, alt. chains</text>

  <!-- ===== Footer ===== -->
  <line x1="70" y1="560" x2="1410" y2="560" stroke="#e2e8f0" stroke-width="1"/>
  <text x="740" y="585" font-size="12" font-weight="700" fill="#475569" text-anchor="middle" letter-spacing="0.06em">8 EVIDENCE SOURCES — FETCHED IN PARALLEL</text>

  <g font-size="10.5" fill="#475569">
    <rect x="91" y="600" width="150" height="32" rx="16" fill="#f8fafc" stroke="#e2e8f0"/>
    <text x="166" y="620" text-anchor="middle">Wikipedia</text>
    <rect x="255" y="600" width="150" height="32" rx="16" fill="#f8fafc" stroke="#e2e8f0"/>
    <text x="330" y="620" text-anchor="middle">DuckDuckGo</text>
    <rect x="419" y="600" width="150" height="32" rx="16" fill="#f8fafc" stroke="#e2e8f0"/>
    <text x="494" y="620" text-anchor="middle">FRED</text>
    <rect x="583" y="600" width="150" height="32" rx="16" fill="#f8fafc" stroke="#e2e8f0"/>
    <text x="658" y="620" text-anchor="middle">World Bank</text>
    <rect x="747" y="600" width="150" height="32" rx="16" fill="#f8fafc" stroke="#e2e8f0"/>
    <text x="822" y="620" text-anchor="middle">GDELT</text>
    <rect x="911" y="600" width="150" height="32" rx="16" fill="#f8fafc" stroke="#e2e8f0"/>
    <text x="986" y="620" text-anchor="middle">ReliefWeb</text>
    <rect x="1075" y="600" width="150" height="32" rx="16" fill="#f8fafc" stroke="#e2e8f0"/>
    <text x="1150" y="620" text-anchor="middle">Open-Meteo</text>
    <rect x="1239" y="600" width="150" height="32" rx="16" fill="#f8fafc" stroke="#e2e8f0"/>
    <text x="1314" y="620" text-anchor="middle">ACLED</text>
  </g>

  <text x="740" y="665" font-size="11" fill="#94a3b8" text-anchor="middle" letter-spacing="0.03em">FastAPI  ·  Next.js 14  ·  Mesa ABM  ·  NetworkX  ·  scipy  ·  statsmodels</text>

  <text x="70" y="697" font-size="10" fill="#cbd5e1">MIT licensed · open source</text>
  <text x="1410" y="697" font-size="10" fill="#cbd5e1" text-anchor="end">github.com/Om7035/butterfly-effect</text>
</svg>
